/* XPM */
static char * Tweetcoin32_xpm[] = {
"32 32 163 2",
"  	c None",
". 	c #005A7F",
"+ 	c #035A7F",
"@ 	c #195E82",
"# 	c #396988",
"$ 	c #7F94A7",
"% 	c #045B7F",
"& 	c #296284",
"* 	c #AEBAC4",
"= 	c #7F95A7",
"- 	c #015A7F",
"; 	c #165D81",
"> 	c #246183",
", 	c #256183",
"' 	c #175D81",
") 	c #466F8C",
"! 	c #BDC6CE",
"~ 	c #C2CAD2",
"{ 	c #2A6384",
"] 	c #095B80",
"^ 	c #47708C",
"/ 	c #99A8B6",
"( 	c #C6CED4",
"_ 	c #D8DDE2",
": 	c #C7CED5",
"< 	c #9AAAB7",
"[ 	c #8498AA",
"} 	c #D5DADF",
"| 	c #B4BEC8",
"1 	c #3B6988",
"2 	c #216082",
"3 	c #96A6B5",
"4 	c #E8EBEE",
"5 	c #FDFDFD",
"6 	c #FFFFFF",
"7 	c #FBFCFC",
"8 	c #DBE0E4",
"9 	c #7E93A6",
"0 	c #1A5E81",
"a 	c #226083",
"b 	c #B0BBC6",
"c 	c #F9FAFB",
"d 	c #F6F7F9",
"e 	c #B7C1CA",
"f 	c #446E8B",
"g 	c #0A5B80",
"h 	c #98A8B6",
"i 	c #FAFAFB",
"j 	c #FDFEFE",
"k 	c #E1E5E9",
"l 	c #8095A7",
"m 	c #1B5E81",
"n 	c #2B6384",
"o 	c #B5C0C9",
"p 	c #0B5B80",
"q 	c #4A718D",
"r 	c #E9ECEF",
"s 	c #F7F8F9",
"t 	c #B9C3CC",
"u 	c #476F8C",
"v 	c #045A7F",
"w 	c #135C80",
"x 	c #638098",
"y 	c #C6CED5",
"z 	c #FBFBFC",
"A 	c #EBEDF0",
"B 	c #4D738F",
"C 	c #9CABB8",
"D 	c #E2E6E9",
"E 	c #8397A9",
"F 	c #1C5F82",
"G 	c #085B80",
"H 	c #48708D",
"I 	c #A8B5C0",
"J 	c #BFC8D0",
"K 	c #ACB8C3",
"L 	c #FCFDFD",
"M 	c #A0AEBB",
"N 	c #195E81",
"O 	c #C9D0D6",
"P 	c #BCC6CE",
"Q 	c #49718D",
"R 	c #075B80",
"S 	c #356787",
"T 	c #93A4B2",
"U 	c #B7C2CB",
"V 	c #8D9EAE",
"W 	c #CCD3D9",
"X 	c #276283",
"Y 	c #B4BFC8",
"Z 	c #236083",
"` 	c #0C5C80",
" .	c #768EA2",
"..	c #8296A8",
"+.	c #2D6485",
"@.	c #0D5C80",
"#.	c #4F748F",
"$.	c #D7DDE1",
"%.	c #DEE2E6",
"&.	c #286284",
"*.	c #DCE0E4",
"=.	c #F4F6F7",
"-.	c #547792",
";.	c #4C738E",
">.	c #557892",
",.	c #A4B2BE",
"'.	c #DEE3E7",
").	c #CBD2D8",
"!.	c #EFF1F3",
"~.	c #3F6B89",
"{.	c #115C80",
"].	c #A9B5C1",
"^.	c #7D93A6",
"/.	c #9AA9B7",
"(.	c #CED4DA",
"_.	c #1D5E82",
":.	c #A1AEBB",
"<.	c #FDFDFE",
"[.	c #7C91A5",
"}.	c #025A7F",
"|.	c #0F5C80",
"1.	c #376887",
"2.	c #135D81",
"3.	c #346787",
"4.	c #CFD5DB",
"5.	c #A5B2BD",
"6.	c #055B7F",
"7.	c #507490",
"8.	c #ECEFF1",
"9.	c #D4DADF",
"0.	c #306586",
"a.	c #0E5C80",
"b.	c #3A6988",
"c.	c #8297A9",
"d.	c #D0D6DB",
"e.	c #EEF0F2",
"f.	c #5C7C94",
"g.	c #B1BCC6",
"h.	c #E6E9EC",
"i.	c #A4B1BD",
"j.	c #BAC3CC",
"k.	c #E7EAED",
"l.	c #869AAA",
"m.	c #F1F3F4",
"n.	c #FEFEFE",
"o.	c #2C6485",
"p.	c #93A5B3",
"q.	c #A5B2BE",
"r.	c #2B6385",
"s.	c #8196A8",
"t.	c #A7B4C0",
"u.	c #69859B",
"v.	c #A7B3BF",
"w.	c #D0D6DC",
"x.	c #E1E5E8",
"y.	c #D1D7DC",
"z.	c #A8B4C0",
"A.	c #577993",
"B.	c #105C80",
"C.	c #316687",
"D.	c #65839A",
"E.	c #065B7F",
"F.	c #1F5F82",
"                          . . . . . .                           ",
"                    . . . . . . . . . . . .                     ",
"                . . . . . . . . . . . . . . . .                 ",
"            . . . . . . . . . . . . . . . . . . . .             ",
"          . . . . . . . . . . . . . . . . . + @ . . .           ",
"        . . . . . . . . . . . . . . . . . . # $ % . . .         ",
"      . . . . . . . . . . . . . . . . . . & * = - . . . .       ",
"      . . . . . . . . . . + ; > , ' + + ) ! ~ { . . . . .       ",
"    . . . . . . . . . ] ^ / ( _ _ : < [ } | 1 - . . . . . .     ",
"    . . . . . . . . 2 3 4 5 6 6 6 6 7 8 9 0 . . . . . . . .     ",
"  . . . . . . . . a b c 6 6 6 6 6 d e f + > ' . . . . . . . .   ",
"  . . . . . . . g h i 6 6 6 6 j k l m - n o / p . . . . . . .   ",
"  . . . . . . . q r 6 6 6 6 s t u v w x y z A B . . . . . . .   ",
". . . . . . . + C 5 6 6 j D E F G H I J K L 5 M % . . . . . . . ",
". . . . . . . N O 6 6 i P Q R S T U l & V L 6 W m . . . . . . . ",
". . . . . . . X 8 6 j Y Z `  .I ..+.@.#.$.6 6 %.{ . . . . . . . ",
". . . . . . . &.*.6 =.-.. p ;.{ F >.,._ j 6 6 '.{ . . . . . . . ",
". . . . . . . 0 ).6 !.~.. . {. .,.].^./.5 6 6 (._.. . . . . . . ",
". . . . . . . % :.<.i [.}.. |.-.1.2.3.4.6 6 j 5.6.. . . . . . . ",
"  . . . . . . . 7.8.6 9.0.. . a.b.c.d.L 6 6 e.-.. . . . . . .   ",
"  . . . . . . . @.M z 7 3 ' f.g.h.z 6 6 6 7 i.|.. . . . . . .   ",
"  . . . . . . . . &.j.k.l.e m.n.6 6 6 6 7 ! n . . . . . . . .   ",
"    . . . . . . . . o.p.'.L 6 6 6 6 n.!.q.r.. . . . . . . .     ",
"    . . . . . . . @.s.t.u.v.w.x.x.y.z.A.B.. . . . . . . . .     ",
"      . . . . . . C.D.0 . E.F.+.+.F.E.. . . . . . . . . .       ",
"      . . . . . . 6.+ . . . . . . . . . . . . . . . . . .       ",
"        . . . . . . . . . . . . . . . . . . . . . . . .         ",
"          . . . . . . . . . . . . . . . . . . . . . .           ",
"            . . . . . . . . . . . . . . . . . . . .             ",
"                . . . . . . . . . . . . . . . .                 ",
"                    . . . . . . . . . . . .                     ",
"                          . . . . . .                           "};
