/* XPM */
static char * Tweetcoin16_xpm[] = {
"16 16 76 1",
" 	c None",
".	c #005A7F",
"+	c #015A7F",
"@	c #065B7F",
"#	c #4A718D",
"$	c #0F5C80",
"%	c #175D81",
"&	c #326586",
"*	c #205F82",
"=	c #71899E",
"-	c #8D9FAF",
";	c #045B7F",
">	c #5E7D96",
",	c #C1C9D1",
"'	c #E5E8EB",
")	c #C0C8D0",
"!	c #98A7B5",
"~	c #306585",
"{	c #5F7E96",
"]	c #E6E9EC",
"^	c #FEFEFE",
"/	c #FDFDFD",
"(	c #DADEE3",
"_	c #748BA0",
":	c #6C869C",
"<	c #587993",
"[	c #185D81",
"}	c #C2CAD1",
"|	c #F4F5F6",
"1	c #AEB9C4",
"2	c #507490",
"3	c #889BAB",
"4	c #D9DEE3",
"5	c #C3CBD2",
"6	c #195E81",
"7	c #336686",
"8	c #EAEDEF",
"9	c #798FA3",
"0	c #6B869C",
"a	c #8498A9",
"b	c #67839A",
"c	c #DDE1E5",
"d	c #E7EAED",
"e	c #356786",
"f	c #346686",
"g	c #BAC3CC",
"h	c #135D81",
"i	c #507590",
"j	c #7D93A6",
"k	c #A9B5C1",
"l	c #FBFCFC",
"m	c #E8EBED",
"n	c #356787",
"o	c #C4CBD3",
"p	c #D8DCE1",
"q	c #316586",
"r	c #376887",
"s	c #658299",
"t	c #C7CED5",
"u	c #FDFEFE",
"v	c #C6CDD4",
"w	c #1A5E81",
"x	c #648098",
"y	c #DFE2E6",
"z	c #96A6B4",
"A	c #CAD1D7",
"B	c #E9ECEE",
"C	c #668299",
"D	c #155D81",
"E	c #869AAB",
"F	c #C0C9D1",
"G	c #E8EBEE",
"H	c #3A6988",
"I	c #1E5F82",
"J	c #366787",
"K	c #1B5E81",
"      ....      ",
"    .......+    ",
"  ........@#$.  ",
"  ...+%&&*=-$.  ",
" ...;>,'')!~... ",
" ..+{]^/(_:<+.. ",
"...[}^|123456...",
"...7]890abcde...",
"...f]ghijklmn...",
"...6opqrstuvw...",
" ..+xyzA|uBC+.. ",
" ...DEFGBtC@... ",
"  ..6HIJJK+...  ",
"  ............  ",
"    ........    ",
"      ....      "};
