/* XPM */
static char * Tweetcoin64_xpm[] = {
"64 64 288 2",
"  	c None",
". 	c #005A7F",
"+ 	c #236284",
"@ 	c #095B80",
"# 	c #0A5B80",
"$ 	c #8EA1B1",
"% 	c #346787",
"& 	c #48708D",
"* 	c #CBD3DA",
"= 	c #356787",
"- 	c #236183",
"; 	c #B8C3CC",
"> 	c #C8D0D7",
", 	c #1C5F82",
"' 	c #236083",
") 	c #A8B5C1",
"! 	c #F4F6F7",
"~ 	c #869BAC",
"{ 	c #025A7F",
"] 	c #015A7F",
"^ 	c #366888",
"/ 	c #B5C0CA",
"( 	c #F9FAFA",
"_ 	c #C9D1D8",
": 	c #286284",
"< 	c #045A7F",
"[ 	c #065B7F",
"} 	c #607F97",
"| 	c #D2D8DE",
"1 	c #FBFCFC",
"2 	c #D9DFE3",
"3 	c #507590",
"4 	c #0C5C80",
"5 	c #306586",
"6 	c #8EA1B0",
"7 	c #A8B5C0",
"8 	c #B3BEC8",
"9 	c #A9B5C1",
"0 	c #90A1B1",
"a 	c #618098",
"b 	c #316686",
"c 	c #0D5C80",
"d 	c #266183",
"e 	c #94A5B4",
"f 	c #EBEEF0",
"g 	c #FAFAFB",
"h 	c #C7CFD6",
"i 	c #4D738F",
"j 	c #185E81",
"k 	c #B1BCC7",
"l 	c #E0E5E8",
"m 	c #F7F8F9",
"n 	c #FCFDFD",
"o 	c #FEFEFE",
"p 	c #FEFEFF",
"q 	c #F8F9FA",
"r 	c #E1E6E9",
"s 	c #B2BEC8",
"t 	c #778FA3",
"u 	c #C5CED5",
"v 	c #F9FAFB",
"w 	c #EBEDF0",
"x 	c #95A6B5",
"y 	c #075B80",
"z 	c #537791",
"A 	c #BBC5CE",
"B 	c #F3F4F6",
"C 	c #FFFFFF",
"D 	c #FAFBFB",
"E 	c #C9D0D7",
"F 	c #5A7B94",
"G 	c #899DAD",
"H 	c #E7EBEE",
"I 	c #96A7B5",
"J 	c #1F6082",
"K 	c #A3B2BE",
"L 	c #F6F8F9",
"M 	c #FBFBFC",
"N 	c #5B7C95",
"O 	c #195E81",
"P 	c #A4B2BF",
"Q 	c #ECEFF1",
"R 	c #99A9B7",
"S 	c #296384",
"T 	c #306687",
"U 	c #145D81",
"V 	c #085B80",
"W 	c #8C9FAF",
"X 	c #CCD3D9",
"Y 	c #5E7E96",
"Z 	c #2A6384",
"` 	c #C3CCD4",
" .	c #90A2B2",
"..	c #577993",
"+.	c #E9EDEF",
"@.	c #EDF0F2",
"#.	c #9BAAB8",
"$.	c #2B6385",
"%.	c #226083",
"&.	c #A6B4C0",
"*.	c #FAFBFC",
"=.	c #5D7D96",
"-.	c #1A5E82",
";.	c #BFC8D0",
">.	c #CED5DC",
",.	c #0C5B80",
"'.	c #4F7590",
").	c #BCC6CE",
"!.	c #C4CCD4",
"~.	c #1E5F82",
"{.	c #66839A",
"].	c #EDF0F3",
"^.	c #9DADBA",
"/.	c #2D6485",
"(.	c #336787",
"_.	c #F6F7F8",
":.	c #6D889E",
"<.	c #0F5C80",
"[.	c #B6C1CA",
"}.	c #D0D6DC",
"|.	c #638199",
"1.	c #216083",
"2.	c #7F95A7",
"3.	c #D8DEE2",
"4.	c #F1F3F4",
"5.	c #C0CAD1",
"6.	c #FEFFFF",
"7.	c #135D81",
"8.	c #E4E8EB",
"9.	c #EFF1F3",
"0.	c #A0AFBC",
"a.	c #2F6586",
"b.	c #155D81",
"c.	c #65829A",
"d.	c #C6CFD6",
"e.	c #EFF2F4",
"f.	c #C7D0D7",
"g.	c #6C879D",
"h.	c #9FAEBB",
"i.	c #FDFEFE",
"j.	c #E9ECEE",
"k.	c #3B6A89",
"l.	c #69869C",
"m.	c #F9F9FA",
"n.	c #FCFCFD",
"o.	c #D1D9DE",
"p.	c #0E5C80",
"q.	c #B4BFC9",
"r.	c #EAEEF0",
"s.	c #CCD4DA",
"t.	c #768EA2",
"u.	c #035A7F",
"v.	c #A3B1BD",
"w.	c #738CA1",
"x.	c #97A7B6",
"y.	c #FDFDFD",
"z.	c #F5F6F8",
"A.	c #A4B3BE",
"B.	c #045B7F",
"C.	c #A1AFBC",
"D.	c #E2E7EA",
"E.	c #CFD6DC",
"F.	c #7D93A6",
"G.	c #256183",
"H.	c #C5CDD5",
"I.	c #B0BCC6",
"J.	c #95A6B4",
"K.	c #2C6385",
"L.	c #8D9FAF",
"M.	c #8197A9",
"N.	c #F2F4F6",
"O.	c #B7C1CA",
"P.	c #BAC4CD",
"Q.	c #C2CBD3",
"R.	c #6E899E",
"S.	c #C8D1D8",
"T.	c #C8D1D7",
"U.	c #296284",
"V.	c #C3CCD3",
"W.	c #125D81",
"X.	c #6F8A9F",
"Y.	c #65839A",
"Z.	c #68859B",
"`.	c #246183",
" +	c #1D5F82",
".+	c #B7C2CB",
"++	c #F1F3F5",
"@+	c #C3CDD4",
"#+	c #065B80",
"$+	c #E9ECEF",
"%+	c #386888",
"&+	c #316586",
"*+	c #7F95A8",
"=+	c #EFF2F3",
"-+	c #E7EAED",
";+	c #E3E7EA",
">+	c #B9C4CD",
",+	c #0B5B80",
"'+	c #9CABB8",
")+	c #FDFDFE",
"!+	c #E0E4E8",
"~+	c #2B6384",
"{+	c #547892",
"]+	c #D8DEE3",
"^+	c #E3E7EB",
"/+	c #BFC8D1",
"(+	c #8398AA",
"_+	c #3D6B8A",
":+	c #B2BEC7",
"<+	c #718BA0",
"[+	c #E8EBEE",
"}+	c #366887",
"|+	c #7F96A8",
"1+	c #D7DEE2",
"2+	c #8498AA",
"3+	c #3E6B8A",
"4+	c #1A5E81",
"5+	c #CAD1D8",
"6+	c #7B92A5",
"7+	c #6A869C",
"8+	c #708AA0",
"9+	c #758EA2",
"0+	c #3A6988",
"a+	c #577A93",
"b+	c #416D8B",
"c+	c #BEC7D0",
"d+	c #BDC6CF",
"e+	c #336687",
"f+	c #C5CDD4",
"g+	c #728CA0",
"h+	c #175D81",
"i+	c #7C93A6",
"j+	c #D3DADF",
"k+	c #115C80",
"l+	c #3D6B89",
"m+	c #859AAB",
"n+	c #F0F2F4",
"o+	c #276284",
"p+	c #67849B",
"q+	c #9AAAB8",
"r+	c #266184",
"s+	c #B8C2CC",
"t+	c #6F899F",
"u+	c #9DACBA",
"v+	c #4B728F",
"w+	c #D2D9DE",
"x+	c #A5B3BF",
"y+	c #125C80",
"z+	c #FCFCFC",
"A+	c #2C6485",
"B+	c #2A6385",
"C+	c #8A9EAE",
"D+	c #DBE0E4",
"E+	c #BDC7D0",
"F+	c #2F6585",
"G+	c #336686",
"H+	c #D1D8DD",
"I+	c #266284",
"J+	c #8097A9",
"K+	c #48718E",
"L+	c #ACB9C3",
"M+	c #F3F5F6",
"N+	c #577A94",
"O+	c #D0D8DD",
"P+	c #F5F7F8",
"Q+	c #D2D9DF",
"R+	c #728CA1",
"S+	c #055B7F",
"T+	c #DDE2E6",
"U+	c #CED6DB",
"V+	c #7E94A7",
"W+	c #638299",
"X+	c #D1D8DE",
"Y+	c #97A8B6",
"Z+	c #1B5E82",
"`+	c #47708D",
" @	c #8398A9",
".@	c #AAB7C2",
"+@	c #BFC9D1",
"@@	c #CAD2D8",
"#@	c #C0C9D1",
"$@	c #ACB8C3",
"%@	c #4A718E",
"&@	c #3A6A89",
"*@	c #A7B6C2",
"=@	c #105C80",
"-@	c #47738F",
";@	c #366988",
"                                                                                                                                ",
"                                                . . . . . . . . . . . . . . . .                                                 ",
"                                          . . . . . . . . . . . . . . . . . . . . . .                                           ",
"                                      . . . . . . . . . . . . . . . . . . . . . . . . . .                                       ",
"                                  . . . . . . . . . . . . . . . . . . . . . . . . . . . . . .                                   ",
"                              . . . . . . . . . . . . . . . . . . . . . . . . . . . . . . . . . .                               ",
"                            . . . . . . . . . . . . . . . . . . . . . . . . . . . . . . . . . . . .                             ",
"                        . . . . . . . . . . . . . . . . . . . . . . . . . . . . . . . . . . . . . . . .                         ",
"                      . . . . . . . . . . . . . . . . . . . . . . . . . . . . . . . . . . . . . . . . . .                       ",
"                    . . . . . . . . . . . . . . . . . . . . . . . . . . . . . . . . . . . . + @ . . . . . .                     ",
"                  . . . . . . . . . . . . . . . . . . . . . . . . . . . . . . . . . . . . # $ % . . . . . . .                   ",
"                . . . . . . . . . . . . . . . . . . . . . . . . . . . . . . . . . . . . . & * = . . . . . . . .                 ",
"              . . . . . . . . . . . . . . . . . . . . . . . . . . . . . . . . . . . . . - ; > , . . . . . . . . .               ",
"              . . . . . . . . . . . . . . . . . . . . . . . . . . . . . . . . . . . . ' ) ! ~ { . . . . . . . . .               ",
"            . . . . . . . . . . . . . . . . . . . . . . . . . . . . . . . . . . . ] ^ / ( _ : . . . . . . . . . . .             ",
"          . . . . . . . . . . . . . . . . . . . . . . . . ] < [ [ < ] . . . . . @ } | 1 2 3 ] . . . . . . . . . . . .           ",
"          . . . . . . . . . . . . . . . . . . . . . 4 5 } 6 7 8 8 9 0 a b c ] d e f g h i { . . . . . . . . . . . . .           ",
"        . . . . . . . . . . . . . . . . . . . . j } k l m n o p p o n q r s t u v w x : ] . . . . . . . . . . . . . . .         ",
"        . . . . . . . . . . . . . . . . . . y z A B o C C C C C C C C C C o D v E F @ . . . . . . . . . . . . . . . . .         ",
"      . . . . . . . . . . . . . . . . . . j G H o C C C C C C C C C C C C o f I : ] . . . . . . . . . . . . . . . . . . .       ",
"      . . . . . . . . . . . . . . . . . J K L C C C C C C C C C C C C C M _ N @ . . . . . . . . . . . . . . . . . . . . .       ",
"    . . . . . . . . . . . . . . . . . O P v C C C C C C C C C C C C p Q R S ] . . . ] T U . . . . . . . . . . . . . . . . .     ",
"    . . . . . . . . . . . . . . . . V W m C C C C C C C C C C C C M X Y # . . . . . Z `  .# . . . . . . . . . . . . . . . .     ",
"    . . . . . . . . . . . . . . . . ..+.C C C C C C C C C C C p @.#.$.] . . . . . %.&.*.Q =.. . . . . . . . . . . . . . . .     ",
"  . . . . . . . . . . . . . . . . -.;.o C C C C C C C C C C 1 >.a ,.. . . . . @ '.).v C o !.~.. . . . . . . . . . . . . . . .   ",
"  . . . . . . . . . . . . . . . . {.! C C C C C C C C C p ].^./.] . . . . { (.#.H n C C C _.:.] . . . . . . . . . . . . . . .   ",
"  . . . . . . . . . . . . . . . <.[.o C C C C C C C C 1 }.|.c . . . . ] 1.2.3.4.5._ 6.C C o ).7.. . . . . . . . . . . . . . .   ",
"  . . . . . . . . . . . . . . . % 8.C C C C C C C 6.9.0.a.] . . . . b.c.d.e.f.g., h.i.C C C j.k.. . . . . . . . . . . . . . .   ",
"  . . . . . . . . . . . . . . . l.m.C C C C C C n.o.{.p.. . . . # '.q.r.s.t.1.] u.v.o C C C D w.. . . . . . . . . . . . . . .   ",
"  . . . . . . . . . . . . . . ] x.y.C C C C C z.A.b ] . . . B.k.C.D.E.F.G.] . . O H.C C C C i.h.{ . . . . . . . . . . . . . .   ",
"  . . . . . . . . . . . . . . [ I.o C C C C q J.b.. . . { K.L.3.E.M.: { . . . u.:.N.C C C C 6.O.@ . . . . . . . . . . . . . .   ",
"  . . . . . . . . . . . . . . # P.C C C C o Q.J . . . [ R.S.T.2.U.{ . . . . 7.g.r C C C C C C V.W.. . . . . . . . . . . . . .   ",
"  . . . . . . . . . . . . . . 4 ).C C C C ( X.. . . . V Y.Z.`.{ . . . ]  +a .+++C C C C C C C @+7.. . . . . . . . . . . . . .   ",
"  . . . . . . . . . . . . . . #+8 o C C C $+%+. . . . . . . . . . y &+*+h =+-+;+C C C C C C C >+,+. . . . . . . . . . . . . .   ",
"  . . . . . . . . . . . . . . { '+)+C C C !+~+. . . . . . . { , {+v.]+^+/+(+_+:+o C C C C C o v.u.. . . . . . . . . . . . . .   ",
"  . . . . . . . . . . . . . . . <+D C C C [+}+. . . . . . 7.|+Q.1+).2+3+U ] 4+5+C C C C C C M 6+. . . . . . . . . . . . . . .   ",
"  . . . . . . . . . . . . . . . k.$+C C C q 7+. . . . . . <.8+9+0+7.] . . . a+e.C C C C C C Q b+. . . . . . . . . . . . . . .   ",
"  . . . . . . . . . . . . . . . U c+p C C o d+O . . . . . . . . . . . . . e+h o C C C C C C f+O . . . . . . . . . . . . . . .   ",
"  . . . . . . . . . . . . . . . ] g+m C C C ! <+] . . . . . . . . . ] h+N _ n C C C C C C ( i+] . . . . . . . . . . . . . . .   ",
"  . . . . . . . . . . . . . . . . %.5+6.C C C j+a.. . . . . . . k+l+m+Q.n+o C C C C C C C }.o+. . . . . . . . . . . . . . . .   ",
"    . . . . . . . . . . . . . . . ] p+n+C C C 1 q+# . . . { r+:.s+[+1 C C C C C C C C C N.t+] . . . . . . . . . . . . . . .     ",
"    . . . . . . . . . . . . . . . . p.u+D C C C $+v+. u.b G w+m o C C C C C C C C C C 1 x+y+. . . . . . . . . . . . . . . .     ",
"    . . . . . . . . . . . . . . . . . `..+n.C z+).A+B+C+D+M C C C C C C C C C C C C n E+Z . . . . . . . . . . . . . . . . .     ",
"      . . . . . . . . . . . . . . . . . F+; q P.G+X.H+D C C C C C C C C C C C C C 1 ;.= . . . . . . . . . . . . . . . . .       ",
"      . . . . . . . . . . . . . . . . . . I+J+K+L+B C C C C C C C C C C C C C C M+&.B+. . . . . . . . . . . . . . . . . .       ",
"        . . . . . . . . . . . . . . . . . u.N+O+P+g C C C C C C C C C C C C D Q+R+U . . . . . . . . . . . . . . . . . .         ",
"        . . . . . . . . . . . . . . . . S+7+T+U+w.V+h 9.1 o C C C C o z+n+_ M.$.{ . . . . . . . . . . . . . . . . . . .         ",
"          . . . . . . . . . . . . . . { W+X+Y+$.] ] Z+`+ @.@+@@@@@#@$@m+%@, ] . . . . . . . . . . . . . . . . . . . .           ",
"          . . . . . . . . . . . . . . &@*@a # . . . . . . S+<.O O =@S+] . . . . . . . . . . . . . . . . . . . . . . .           ",
"            . . . . . . . . . . . . ] -@;@] . . . . . . . . . . . . . . . . . . . . . . . . . . . . . . . . . . . .             ",
"              . . . . . . . . . . . . { . . . . . . . . . . . . . . . . . . . . . . . . . . . . . . . . . . . . .               ",
"              . . . . . . . . . . . . . . . . . . . . . . . . . . . . . . . . . . . . . . . . . . . . . . . . . .               ",
"                . . . . . . . . . . . . . . . . . . . . . . . . . . . . . . . . . . . . . . . . . . . . . . . .                 ",
"                  . . . . . . . . . . . . . . . . . . . . . . . . . . . . . . . . . . . . . . . . . . . . . .                   ",
"                    . . . . . . . . . . . . . . . . . . . . . . . . . . . . . . . . . . . . . . . . . . . .                     ",
"                      . . . . . . . . . . . . . . . . . . . . . . . . . . . . . . . . . . . . . . . . . .                       ",
"                        . . . . . . . . . . . . . . . . . . . . . . . . . . . . . . . . . . . . . . . .                         ",
"                            . . . . . . . . . . . . . . . . . . . . . . . . . . . . . . . . . . . .                             ",
"                              . . . . . . . . . . . . . . . . . . . . . . . . . . . . . . . . . .                               ",
"                                  . . . . . . . . . . . . . . . . . . . . . . . . . . . . . .                                   ",
"                                      . . . . . . . . . . . . . . . . . . . . . . . . . .                                       ",
"                                          . . . . . . . . . . . . . . . . . . . . . .                                           ",
"                                                . . . . . . . . . . . . . . . .                                                 ",
"                                                                                                                                "};
